<svg xmlns="http://www.w3.org/2000/svg"><defs><style>.fil4{fill:#fefefe}.fil3{fill:#e3e3e3}.fil0,.fil1,.fil2{fill:#fefefe;fill-rule:nonzero}.fil1,.fil2{fill-opacity:.301961}.fil2{fill-opacity:.501961}</style></defs><symbol id="arrow-back" viewBox="0 0 477.175 477.175"><path fill="#fff" d="M145.188 238.575l215.5-215.5c5.3-5.3 5.3-13.8 0-19.1s-13.8-5.3-19.1 0l-225.1 225.1c-5.3 5.3-5.3 13.8 0 19.1l225.1 225c2.6 2.6 6.1 4 9.5 4s6.9-1.3 9.5-4c5.3-5.3 5.3-13.8 0-19.1l-215.4-215.5z"/></symbol><symbol id="close-black" viewBox="0 0 47.971 47.971"><path d="M28.228 23.986L47.092 5.122a2.998 2.998 0 0 0 0-4.242 2.998 2.998 0 0 0-4.242 0L23.986 19.744 5.121.88a2.998 2.998 0 0 0-4.242 0 2.998 2.998 0 0 0 0 4.242l18.865 18.864L.879 42.85a2.998 2.998 0 1 0 4.242 4.241l18.865-18.864L42.85 47.091c.586.586 1.354.879 2.121.879s1.535-.293 2.121-.879a2.998 2.998 0 0 0 0-4.242L28.228 23.986z"/></symbol><symbol id="close-white" viewBox="0 0 47.971 47.971"><path d="M28.228 23.986L47.092 5.122a2.998 2.998 0 0 0 0-4.242 2.998 2.998 0 0 0-4.242 0L23.986 19.744 5.121.88a2.998 2.998 0 0 0-4.242 0 2.998 2.998 0 0 0 0 4.242l18.865 18.864L.879 42.85a2.998 2.998 0 1 0 4.242 4.241l18.865-18.864L42.85 47.091c.586.586 1.354.879 2.121.879s1.535-.293 2.121-.879a2.998 2.998 0 0 0 0-4.242L28.228 23.986z" fill="#fff"/></symbol><symbol id="close" viewBox="0 0 47.971 47.971"><path d="M28.228 23.986L47.092 5.122a2.998 2.998 0 0 0 0-4.242 2.998 2.998 0 0 0-4.242 0L23.986 19.744 5.121.88a2.998 2.998 0 0 0-4.242 0 2.998 2.998 0 0 0 0 4.242l18.865 18.864L.879 42.85a2.998 2.998 0 1 0 4.242 4.241l18.865-18.864L42.85 47.091c.586.586 1.354.879 2.121.879s1.535-.293 2.121-.879a2.998 2.998 0 0 0 0-4.242L28.228 23.986z" fill="#aea47e"/></symbol><symbol id="download" viewBox="0 0 33.293 33.293"><path d="M16.646 24.786a.5.5 0 0 1-.5-.5l.001-11.279a.5.5 0 0 1 1 0l-.001 11.279a.5.5 0 0 1-.5.5z"/><path d="M16.646 24.786a.502.502 0 0 1-.354-.146l-4.313-4.313a.5.5 0 0 1 .707-.707l3.959 3.959 3.959-3.959a.5.5 0 0 1 .707.707l-4.313 4.313a.494.494 0 0 1-.352.146z"/><path d="M27.578 33.293H5.715a2.503 2.503 0 0 1-2.5-2.5V2.5c0-1.379 1.122-2.5 2.5-2.5h15.877a.5.5 0 0 1 0 1H5.715c-.827 0-1.5.673-1.5 1.5v28.293c0 .827.673 1.5 1.5 1.5h21.863c.827 0 1.5-.673 1.5-1.5V8.704a.5.5 0 0 1 1 0v22.09a2.502 2.502 0 0 1-2.5 2.499z"/><path d="M29.578 9.204h-7.986a.5.5 0 0 1-.5-.5V.717a.5.5 0 0 1 1 0v7.486h7.486a.5.5 0 0 1 0 1.001z"/><path d="M29.578 9.204a.5.5 0 0 1-.358-.151L21.234.85a.5.5 0 0 1 .717-.697l7.986 8.203a.5.5 0 0 1-.359.848z"/></symbol><symbol id="facebook" viewBox="0 0 486.392 486.392"><path d="M243.196 0C108.891 0 0 108.891 0 243.196s108.891 243.196 243.196 243.196 243.196-108.891 243.196-243.196C486.392 108.861 377.501 0 243.196 0zm62.866 243.165l-39.854.03-.03 145.917h-54.689V243.196H175.01v-50.281l36.479-.03-.061-29.609c0-41.039 11.126-65.997 59.431-65.997h40.249v50.311h-25.171c-18.817 0-19.729 7.022-19.729 20.124l-.061 25.171h45.234l-5.319 50.28z" fill="#c79216"/></symbol><symbol id="im" viewBox="0 0 49.652 49.652"><g fill="#c79216"><path d="M24.825 29.796a4.978 4.978 0 0 0 4.972-4.97 4.954 4.954 0 0 0-.94-2.897 4.964 4.964 0 0 0-4.029-2.073c-1.659 0-3.126.82-4.031 2.072a4.947 4.947 0 0 0-.94 2.897 4.973 4.973 0 0 0 4.968 4.971zM35.678 18.746V13.96l-.623.002-4.164.013.016 4.787z"/><path d="M24.826 0C11.137 0 0 11.137 0 24.826c0 13.688 11.137 24.826 24.826 24.826 13.688 0 24.826-11.138 24.826-24.826C49.652 11.137 38.516 0 24.826 0zm14.119 21.929v11.56a5.463 5.463 0 0 1-5.457 5.458H16.164a5.462 5.462 0 0 1-5.457-5.458V16.165a5.462 5.462 0 0 1 5.457-5.457h17.323a5.463 5.463 0 0 1 5.458 5.457v5.764z"/><path d="M32.549 24.826c0 4.257-3.464 7.723-7.723 7.723s-7.722-3.466-7.722-7.723a7.67 7.67 0 0 1 .568-2.897h-4.215v11.56a2.706 2.706 0 0 0 2.706 2.704h17.323a2.707 2.707 0 0 0 2.706-2.704v-11.56h-4.217c.367.894.574 1.873.574 2.897z"/></g></symbol><symbol id="locate" viewBox="0 0 430.114 430.114"><path d="M356.208 107.051c-1.531-5.738-4.64-11.852-6.94-17.205C321.746 23.704 261.611 0 213.055 0 148.054 0 76.463 43.586 66.905 133.427v18.355c0 .766.264 7.647.639 11.089 5.358 42.816 39.143 88.32 64.375 131.136 27.146 45.873 55.314 90.999 83.221 136.106 17.208-29.436 34.354-59.259 51.17-87.933 4.583-8.415 9.903-16.825 14.491-24.857 3.058-5.348 8.9-10.696 11.569-15.672 27.145-49.699 70.838-99.782 70.838-149.104v-20.262c.001-5.347-6.627-24.081-7-25.234zm-141.963 92.142c-19.107 0-40.021-9.554-50.344-35.939-1.538-4.2-1.414-12.617-1.414-13.388v-11.852c0-33.636 28.56-48.932 53.406-48.932 30.588 0 54.245 24.472 54.245 55.06 0 30.587-25.305 55.051-55.893 55.051z"/></symbol><symbol id="logo-tech" viewBox="0 0 198.4 141.7"><path fill="none" stroke="#c79216" stroke-miterlimit="10" d="M47.4 94.5c3.4 0 11.8-.6 18-5.2v3.5H78V77.6l5.3-5.5 11.5 20.7h15.1L92.6 63.2l16.9-18.6H94L78 62.9V27.8H65.4v5.6c-3.9-4.1-10.1-7.3-19.8-7.3-21 0-25 12.8-25 20 0 9.9 5.3 15.3 14.5 17.6l13.1 3.2c6.9 1.7 11.8 3 11.8 8.1 0 6.8-7.2 8.4-13.6 8.4-11.8 0-13.8-6.9-13.8-10.6h-13c.1 8 4.2 21.7 27.8 21.7M56 55.7l-15.8-3.9c-2.7-.6-6.9-1.7-6.9-6.8 0-5.8 6.2-7.8 11.4-7.8 11.8 0 12.9 6.9 13.2 9.8h7.5v12.1c-2.7-1.5-6-2.5-9.4-3.4"/><g fill="none" stroke="#c79216" stroke-miterlimit="10"><path d="M26.6 101.9h-6.5v-4.1h17.8v4.1h-6.5v17.7h-4.8v-17.7z"/><path d="M42.6 120c-1.2 0-2.4-.2-3.4-.6-1-.4-1.8-1-2.5-1.7s-1.2-1.6-1.6-2.6c-.4-1-.6-2.1-.6-3.4 0-1.2.2-2.3.6-3.3.4-1 .9-1.9 1.6-2.6.7-.7 1.6-1.3 2.5-1.8 1-.4 2.1-.6 3.3-.6 1.3 0 2.4.2 3.3.7 1 .5 1.8 1.1 2.4 1.9.6.8 1.1 1.7 1.4 2.7.3 1 .5 2.1.5 3.2v.8H38.9c.1 1.4.4 2.4 1.1 3 .7.6 1.6.9 2.8.9.9 0 1.6-.2 2.3-.7.6-.4 1-.9 1.2-1.4H50c-.6 1.9-1.5 3.2-2.8 4.1-1.3 1-2.8 1.4-4.6 1.4zm3.3-10c-.2-1.1-.6-1.9-1.1-2.5-.5-.6-1.3-.9-2.4-.9-.7 0-1.3.1-1.7.4-.4.2-.8.5-1.1.9-.3.3-.5.7-.6 1.1-.1.4-.2.7-.2 1h7.1z"/><path d="M55.4 111.3l-5.2-7.5h4.9l2.8 4.1 2.7-4.1h4.8l-5.2 7.4 5.8 8.4h-4.9l-3.3-5-3.3 5h-4.8l5.7-8.3zM66.2 103.8h4.3v5.7h6.2v-5.7H81v15.8h-4.3V113h-6.2v6.6h-4.3v-15.8zM90.4 120c-1.2 0-2.4-.2-3.4-.6-1-.4-1.9-.9-2.6-1.7-.7-.7-1.3-1.6-1.6-2.6-.4-1-.6-2.2-.6-3.4 0-1.3.2-2.4.6-3.4.4-1 .9-1.9 1.6-2.6.7-.7 1.6-1.3 2.6-1.7 1-.4 2.1-.6 3.4-.6 1.2 0 2.4.2 3.4.6 1 .4 1.9 1 2.6 1.7.7.7 1.3 1.6 1.6 2.6.4 1 .6 2.2.6 3.4 0 1.3-.2 2.4-.6 3.4-.4 1-.9 1.9-1.6 2.6-.7.7-1.6 1.3-2.6 1.7-1 .4-2.2.6-3.4.6zm0-3.3c.7 0 1.4-.1 1.9-.4.5-.3.9-.7 1.2-1.1.3-.5.5-1 .6-1.6.1-.6.2-1.2.2-1.8 0-.6-.1-1.3-.2-1.9-.1-.6-.3-1.1-.6-1.6s-.7-.8-1.2-1.1c-.5-.3-1.1-.4-1.9-.4-.7 0-1.4.1-1.8.4s-.9.7-1.2 1.1c-.3.5-.5 1-.6 1.6-.1.6-.2 1.2-.2 1.9 0 .6.1 1.2.2 1.8.1.6.3 1.1.6 1.6s.7.9 1.2 1.1c.5.3 1.1.4 1.8.4zM99.9 103.8h14.5v15.8h-4.3v-12.5h-5.9v12.5h-4.3v-15.8zM120.8 120c-.8 0-1.5-.1-2.1-.3-.7-.2-1.2-.5-1.7-.9s-.9-.9-1.1-1.5c-.3-.6-.4-1.3-.4-2.1 0-.9.2-1.6.5-2.2.3-.6.7-1 1.2-1.4.5-.3 1.1-.6 1.7-.8.6-.2 1.3-.3 1.9-.4.7-.1 1.3-.2 1.9-.2.6-.1 1.2-.2 1.7-.3.5-.1.9-.3 1.2-.5.3-.2.4-.6.4-1s-.1-.8-.2-1.1c-.2-.3-.4-.5-.6-.7-.3-.2-.5-.3-.9-.3-.3-.1-.7-.1-1.1-.1-.9 0-1.5.2-2 .5-.5.4-.8 1-.9 1.8H116c.1-1 .3-1.8.8-2.5.4-.7 1-1.2 1.7-1.6.7-.4 1.5-.7 2.3-.9.9-.2 1.7-.3 2.6-.3.8 0 1.6.1 2.4.2.8.1 1.5.3 2.2.7.7.3 1.2.8 1.6 1.4.4.6.6 1.4.6 2.3v8.2c0 .7 0 1.4.1 2 .1.7.2 1.1.4 1.5h-4.4c-.1-.2-.1-.5-.2-.7-.1-.3-.1-.5-.1-.8-.7.7-1.5 1.2-2.4 1.5-.8.3-1.8.5-2.8.5zm1.6-2.9c.9 0 1.5-.1 2-.4.5-.3.8-.6 1-1 .2-.4.4-.8.4-1.2.1-.4.1-.7.1-1v-1.6c-.2.2-.4.3-.7.4-.3.1-.6.2-.9.2-.3.1-.7.1-1 .2-.3 0-.7.1-1 .2-.3.1-.7.1-1 .2-.3.1-.6.2-.8.4-.2.2-.4.4-.6.7-.1.3-.2.6-.2 1s.1.7.2 1c.1.3.3.5.6.6.2.2.5.3.9.3h1zM132.1 103.8h4.1v2h.1c.5-.9 1.2-1.5 2-1.9.8-.4 1.7-.6 2.7-.6 1.2 0 2.3.2 3.2.7.9.5 1.6 1.1 2.2 1.9.6.8 1 1.7 1.3 2.7.3 1 .4 2.1.4 3.2s-.1 2.1-.4 3c-.3 1-.7 1.8-1.3 2.6-.6.8-1.3 1.4-2.2 1.8-.9.4-1.9.7-3 .7-1 0-1.9-.2-2.7-.6-.8-.4-1.5-1-2-1.8h-.1v7.5h-4.3v-21.2zm8 12.9c.7 0 1.3-.1 1.8-.4.5-.3.9-.7 1.2-1.1s.5-1 .6-1.6c.1-.6.2-1.2.2-1.9 0-.6-.1-1.2-.2-1.9-.1-.6-.4-1.2-.7-1.6-.3-.5-.7-.9-1.2-1.2-.5-.3-1.1-.4-1.8-.4s-1.3.1-1.8.4c-.5.3-.9.7-1.2 1.1-.3.5-.5 1-.6 1.6-.1.6-.2 1.2-.2 1.9s.1 1.3.2 1.9c.1.6.3 1.1.6 1.6s.7.8 1.2 1.1c.6.4 1.2.5 1.9.5zM149.2 103.8h4.3v6.7l5.8-6.7h5.1l-6 6.3 6.9 9.5H160l-4.4-6.6-2.1 2.2v4.4h-4.3v-15.8z"/></g></symbol><symbol id="magnifying" viewBox="0 0 483.083 483.083"><path d="M332.74 315.35c30.883-33.433 50.15-78.2 50.15-127.5C382.89 84.433 298.74 0 195.04 0S7.19 84.433 7.19 187.85 91.34 375.7 195.04 375.7c42.217 0 81.033-13.883 112.483-37.4l139.683 139.683c3.4 3.4 7.65 5.1 11.9 5.1s8.783-1.7 11.9-5.1c6.517-6.517 6.517-17.283 0-24.083L332.74 315.35zM41.19 187.85C41.19 103.133 110.04 34 195.04 34c84.717 0 153.85 68.85 153.85 153.85S280.04 341.7 195.04 341.7 41.19 272.567 41.19 187.85z" fill="#FFF"/></symbol><symbol id="mai-color" viewBox="0 0 485.211 485.211"><path d="M485.211 363.906c0 10.637-2.992 20.498-7.785 29.174L324.225 221.67l151.54-132.584c5.895 9.355 9.446 20.344 9.446 32.219v242.601zM242.606 252.793l210.863-184.5c-8.653-4.737-18.397-7.642-28.908-7.642H60.651c-10.524 0-20.271 2.905-28.889 7.642l210.844 184.5zm58.787-11.162l-48.809 42.734a15.145 15.145 0 0 1-9.978 3.729c-3.57 0-7.125-1.242-9.98-3.729l-48.82-42.736L28.667 415.23c9.299 5.834 20.197 9.329 31.983 9.329h363.911c11.784 0 22.687-3.495 31.983-9.329L301.393 241.631zM9.448 89.085C3.554 98.44 0 109.429 0 121.305v242.602c0 10.637 2.978 20.498 7.789 29.174l153.183-171.44L9.448 89.085z"/></symbol><symbol id="mai" viewBox="0 0 485.211 485.211"><path d="M485.211 363.906c0 10.637-2.992 20.498-7.785 29.174L324.225 221.67l151.54-132.584c5.895 9.355 9.446 20.344 9.446 32.219v242.601zM242.606 252.793l210.863-184.5c-8.653-4.737-18.397-7.642-28.908-7.642H60.651c-10.524 0-20.271 2.905-28.889 7.642l210.844 184.5zm58.787-11.162l-48.809 42.734a15.145 15.145 0 0 1-9.978 3.729c-3.57 0-7.125-1.242-9.98-3.729l-48.82-42.736L28.667 415.23c9.299 5.834 20.197 9.329 31.983 9.329h363.911c11.784 0 22.687-3.495 31.983-9.329L301.393 241.631zM9.448 89.085C3.554 98.44 0 109.429 0 121.305v242.602c0 10.637 2.978 20.498 7.789 29.174l153.183-171.44L9.448 89.085z"/></symbol><symbol id="mail" viewBox="0 0 31.012 31.012"><path d="M28.512 26.529H2.5a2.503 2.503 0 0 1-2.5-2.5V6.982c0-1.379 1.122-2.5 2.5-2.5h26.012c1.378 0 2.5 1.121 2.5 2.5v17.047c0 1.379-1.122 2.5-2.5 2.5zM2.5 5.482c-.827 0-1.5.673-1.5 1.5v17.047c0 .827.673 1.5 1.5 1.5h26.012c.827 0 1.5-.673 1.5-1.5V6.982c0-.827-.673-1.5-1.5-1.5H2.5z"/><path d="M15.506 18.018c-.665 0-1.33-.221-1.836-.662L.891 6.219a.5.5 0 1 1 .658-.754l12.778 11.137c.64.557 1.72.556 2.358 0L29.46 5.466a.497.497 0 0 1 .706.049.5.5 0 0 1-.048.705L17.342 17.355c-.506.442-1.171.663-1.836.663z"/></symbol><symbol id="menu" viewBox="0 0 341.333 341.333"><g fill="#FFF"><path d="M128 128h85.333v85.333H128zM0 0h85.333v85.333H0zM128 256h85.333v85.333H128zM0 128h85.333v85.333H0zM0 256h85.333v85.333H0zM256 0h85.333v85.333H256zM128 0h85.333v85.333H128zM256 128h85.333v85.333H256zM256 256h85.333v85.333H256z"/></g></symbol><symbol id="oclock" viewBox="0 0 472.912 472.912"><path d="M236.477.016C106.078.016 0 106.07 0 236.444c0 130.39 106.078 236.452 236.477 236.452 130.374 0 236.436-106.07 236.436-236.452C472.912 106.07 366.851.016 236.477.016zm0 438c-111.134 0-201.564-90.43-201.564-201.564 0-111.126 90.43-201.54 201.564-201.54 111.126 0 201.54 90.422 201.54 201.54-.001 111.134-90.415 201.564-201.54 201.564z" fill="#010002"/><path d="M236.452 61.354c-9.616 0-17.444 7.828-17.444 17.444v140.21H94.771c-9.624 0-17.444 7.836-17.444 17.468 0 9.616 7.828 17.444 17.444 17.444h141.681c9.624 0 17.444-7.828 17.444-17.444V78.798c0-9.624-7.82-17.444-17.444-17.444z" fill="#010002"/></symbol><symbol id="phone-color" viewBox="0 0 578.106 578.106"><path d="M577.83 456.128c1.225 9.385-1.635 17.545-8.568 24.48l-81.396 80.781c-3.672 4.08-8.465 7.551-14.381 10.404-5.916 2.857-11.729 4.693-17.439 5.508-.408 0-1.635.105-3.676.309-2.037.203-4.689.307-7.953.307-7.754 0-20.301-1.326-37.641-3.979s-38.555-9.182-63.645-19.584c-25.096-10.404-53.553-26.012-85.376-46.818-31.823-20.805-65.688-49.367-101.592-85.68-28.56-28.152-52.224-55.08-70.992-80.783-18.768-25.705-33.864-49.471-45.288-71.299-11.425-21.828-19.993-41.616-25.705-59.364S4.59 177.362 2.55 164.51-.306 141.56.102 134.216c.408-7.344.612-11.424.612-12.24.816-5.712 2.652-11.526 5.508-17.442s6.324-10.71 10.404-14.382L98.022 8.756c5.712-5.712 12.24-8.568 19.584-8.568 5.304 0 9.996 1.53 14.076 4.59s7.548 6.834 10.404 11.322l65.484 124.236c3.672 6.528 4.692 13.668 3.06 21.42-1.632 7.752-5.1 14.28-10.404 19.584l-29.988 29.988c-.816.816-1.53 2.142-2.142 3.978s-.918 3.366-.918 4.59c1.632 8.568 5.304 18.36 11.016 29.376 4.896 9.792 12.444 21.726 22.644 35.802s24.684 30.293 43.452 48.653c18.36 18.77 34.68 33.354 48.96 43.76 14.277 10.4 26.215 18.053 35.803 22.949 9.588 4.896 16.932 7.854 22.031 8.871l7.648 1.531c.816 0 2.145-.307 3.979-.918 1.836-.613 3.162-1.326 3.979-2.143l34.883-35.496c7.348-6.527 15.912-9.791 25.705-9.791 6.938 0 12.443 1.223 16.523 3.672h.611l118.115 69.768c8.571 5.308 13.67 12.038 15.303 20.198z"/></symbol><symbol id="phone" viewBox="0 0 578.106 578.106"><path d="M577.83 456.128c1.225 9.385-1.635 17.545-8.568 24.48l-81.396 80.781c-3.672 4.08-8.465 7.551-14.381 10.404-5.916 2.857-11.729 4.693-17.439 5.508-.408 0-1.635.105-3.676.309-2.037.203-4.689.307-7.953.307-7.754 0-20.301-1.326-37.641-3.979s-38.555-9.182-63.645-19.584c-25.096-10.404-53.553-26.012-85.376-46.818-31.823-20.805-65.688-49.367-101.592-85.68-28.56-28.152-52.224-55.08-70.992-80.783-18.768-25.705-33.864-49.471-45.288-71.299-11.425-21.828-19.993-41.616-25.705-59.364S4.59 177.362 2.55 164.51-.306 141.56.102 134.216c.408-7.344.612-11.424.612-12.24.816-5.712 2.652-11.526 5.508-17.442s6.324-10.71 10.404-14.382L98.022 8.756c5.712-5.712 12.24-8.568 19.584-8.568 5.304 0 9.996 1.53 14.076 4.59s7.548 6.834 10.404 11.322l65.484 124.236c3.672 6.528 4.692 13.668 3.06 21.42-1.632 7.752-5.1 14.28-10.404 19.584l-29.988 29.988c-.816.816-1.53 2.142-2.142 3.978s-.918 3.366-.918 4.59c1.632 8.568 5.304 18.36 11.016 29.376 4.896 9.792 12.444 21.726 22.644 35.802s24.684 30.293 43.452 48.653c18.36 18.77 34.68 33.354 48.96 43.76 14.277 10.4 26.215 18.053 35.803 22.949 9.588 4.896 16.932 7.854 22.031 8.871l7.648 1.531c.816 0 2.145-.307 3.979-.918 1.836-.613 3.162-1.326 3.979-2.143l34.883-35.496c7.348-6.527 15.912-9.791 25.705-9.791 6.938 0 12.443 1.223 16.523 3.672h.611l118.115 69.768c8.571 5.308 13.67 12.038 15.303 20.198z"/></symbol><symbol id="play-button-galery" viewBox="0 0 41.999 41.999"><path d="M36.068 20.176l-29-20A1 1 0 1 0 5.5.999v40a1 1 0 0 0 1.568.823l29-20a.999.999 0 0 0 0-1.646z" fill="#c79216"/></symbol><symbol id="play-button" viewBox="0 0 41.999 41.999"><path d="M36.068 20.176l-29-20A1 1 0 1 0 5.5.999v40a1 1 0 0 0 1.568.823l29-20a.999.999 0 0 0 0-1.646z" fill="#FFF"/></symbol><symbol id="pplan" viewBox="0 0 4315 1379"><g id="&#x421;&#x43B;&#x43E;&#x439;_x0020_1"><g id="_1597469681440"><path class="fil0" d="M1687 1034l67-344h132c20 0 38 3 52 10 16 8 28 19 37 34s13 33 13 53c0 29-7 54-22 78-14 23-33 40-57 51-16 8-34 11-53 11h-64l-21 107h-84zm119-179h41c12 0 21-2 28-7 18-12 26-29 26-53 0-10-3-18-8-24-6-6-15-9-26-9h-43l-18 93zM1983 1034l67-344h131c21 0 38 3 52 10 17 8 29 19 38 34 8 15 13 33 13 53 0 29-8 54-22 78-15 23-34 40-57 51-17 8-34 11-53 11h-64l-21 107h-84zm119-179h40c12 0 22-2 29-7 17-12 26-29 26-53 0-10-3-18-9-24s-15-9-26-9h-42l-18 93zM2276 1034l67-344h84l-53 272h141l-15 72zM2541 1034l179-344h97l48 344h-84l-7-72h-108l-35 72h-90zm158-140h69l-11-120c-24 49-37 76-58 120zM2906 1034l67-344h81l64 160 14 35 4 10c14-72 26-134 40-205h84l-67 344h-81c-28-69-55-137-82-206-14 71-26 135-40 206h-84zM3266 918c17 15 36 24 58 33 14 5 29 8 43 8 10 0 19-3 27-7 9-5 13-12 13-22 0-14-22-26-33-31-9-4-19-9-29-16-11-7-21-13-30-21-9-7-17-17-23-29s-10-25-10-39c0-32 13-57 38-76s53-28 86-28c47 0 78 12 103 29l-15 79c-13-11-27-18-50-26-13-5-26-7-39-7-10 0-19 2-28 7s-13 12-13 22c0 5 3 11 9 16 7 5 14 10 24 14 9 5 19 10 30 16l30 21c9 7 17 17 23 29s9 25 9 40c0 28-11 53-35 73-24 21-53 31-89 31-23 0-47-4-70-12-17-6-32-15-44-25v-1l15-78z"/><path class="fil1" d="M1345 730C1236 518 992 166 519 12c-107-34-219 6-280 100C110 311-73 698 30 1184c24 110 115 187 227 193 236 12 664-22 1033-355 84-75 106-193 55-292z"/><path class="fil2" d="M1824 534l-13 70h-30l42-216h27l-2 13-3 12c6-8 14-15 23-20 9-6 20-9 31-9 18 0 32 6 43 18 10 11 15 26 15 46 0 28-8 52-25 70-17 19-37 28-59 28-10 0-20-2-28-7-8-4-14-11-18-20h-1c0 5-1 9-2 15zm11-53c0 12 3 21 9 28 6 8 15 12 26 12 14 0 27-7 39-20s18-30 18-51c0-12-3-22-9-29-7-7-15-11-26-11-16 0-29 8-40 22s-17 31-17 49zm136 26c0-10 3-18 7-25 5-8 10-13 17-18 7-4 15-8 25-10 9-3 18-5 27-6s17-2 27-2h8c0-4 1-8 1-13 0-16-10-23-28-23-16 0-31 4-46 14l-8-23c6-5 15-8 25-12 11-3 22-5 33-5 16 0 29 4 39 11 10 8 15 19 15 35 0 4-1 9-2 16l-18 97h-28l3-16 3-12h-1c-4 7-11 14-20 21-10 7-21 10-33 10-13 0-24-3-32-10-9-8-14-17-14-29zm30-5c0 6 2 11 6 15s10 6 19 6c11 0 22-5 32-16 10-10 16-21 19-34l1-5h-8c-46 0-69 11-69 34zm125 22l14-19c5 5 10 9 17 12 7 4 15 5 23 5 9 0 18-2 25-8 7-5 11-13 11-22 0-12-9-18-27-18h-19l4-22h17c9 0 17-2 24-7 6-4 10-11 10-20 0-11-9-17-25-17-13 0-26 4-39 13l-9-20c15-11 33-17 54-17 15 0 27 4 35 10 9 7 14 16 14 27 0 10-3 18-8 25s-13 13-22 16v1c14 5 21 15 21 31s-6 28-19 38c-12 9-28 14-45 14-11 0-22-2-32-6s-18-9-24-16zm178 10l-14 70h-29l42-216h27l-2 13-4 12h1c6-8 13-15 23-20 9-6 19-9 31-9 18 0 32 6 42 18 11 11 16 26 16 46 0 28-9 52-26 70-16 19-36 28-58 28-11 0-20-2-28-7-9-4-15-11-19-20 0 5-1 9-2 15zm11-53c0 12 3 21 9 28 6 8 14 12 26 12 14 0 27-7 39-20s18-30 18-51c0-12-4-22-10-29s-15-11-26-11c-15 0-28 8-39 22s-17 31-17 49zm136 26c0-10 2-18 7-25 4-8 10-13 17-18 7-4 15-8 24-10 10-3 19-5 28-6 8-1 17-2 26-2h8c1-4 2-8 2-13 0-16-10-23-29-23-15 0-30 4-46 14l-8-23c7-5 15-8 26-12 11-3 22-5 33-5 16 0 29 4 38 11 10 8 15 19 15 35 0 4 0 9-1 16l-19 97h-27l3-16 3-12h-1c-4 7-11 14-21 21-9 7-20 10-32 10-13 0-24-3-33-10-8-8-13-17-13-29zm29-5c0 6 3 11 7 15s10 6 18 6c12 0 23-5 33-16 9-10 16-21 18-34l1-5h-7c-46 0-70 11-70 34zm144-26c0-14 2-28 6-43 3-15 9-28 17-39 7-12 16-22 28-30 11-8 25-16 42-22l60-23 6 24-65 25c-17 7-30 15-39 24-9 10-15 21-19 36 16-17 34-26 56-26 17 0 31 5 42 15 10 11 15 25 15 42 0 23-8 44-24 61-17 18-37 26-63 26-21 0-36-6-47-19-10-12-15-29-15-51zm29 8c0 12 3 21 10 27 7 7 15 10 26 10 15 0 28-6 38-17 11-12 16-26 16-41 0-12-3-21-10-27-6-7-15-10-25-10-15 0-27 6-38 17-11 12-17 26-17 41zm146-6c0-26 10-48 29-66s41-28 66-28c22 0 40 7 53 19 14 13 21 29 21 49 0 26-10 48-30 67-19 18-41 27-66 27-21 0-39-6-53-19-13-12-20-28-20-49zm30-1c0 13 4 24 12 32s19 12 32 12c16 0 31-7 44-20 14-13 20-29 20-48 0-12-4-23-12-31s-18-12-31-12c-17 0-32 7-45 20s-20 28-20 47zm188 66l25-130h-54l5-25h137l-5 25h-53l-25 130h-30zm112 0l30-155h30l-12 62h21l53-62h35l-66 77v1l42 77h-33l-35-67h-22l-13 67h-30zm152-36c0-10 2-18 7-25 4-8 10-13 17-18 7-4 15-8 24-10 10-3 19-5 28-6 8-1 17-2 26-2h8c1-4 2-8 2-13 0-16-10-23-28-23-16 0-31 4-47 14l-7-23c6-5 14-8 25-12 11-3 22-5 33-5 16 0 29 4 39 11 10 8 15 19 15 35 0 4-1 9-2 16l-19 97h-27l3-16 3-12h-1c-4 7-11 14-21 21-9 7-20 10-32 10-13 0-24-3-33-10-8-8-13-17-13-29zm30-5c0 6 2 11 6 15s10 6 19 6c11 0 22-5 32-16 9-10 16-21 19-34v-5h-7c-46 0-69 11-69 34zm215-23c0-26 10-48 29-67 19-18 41-28 67-28 25 0 44 8 58 23l-17 19c-4-5-10-9-18-12-7-2-15-4-22-4-18 0-33 7-47 20-13 13-19 29-19 47 0 13 4 24 12 32s19 12 33 12c17 0 35-7 51-21l9 23c-8 7-17 13-29 17-11 4-23 6-34 6-22 0-40-6-53-18-13-13-20-29-20-49zm157 28c0-10 2-18 7-25 4-8 10-13 17-18 7-4 15-8 24-10 9-3 18-5 27-6s18-2 27-2h8c1-4 1-8 1-13 0-16-9-23-28-23-15 0-31 4-46 14l-8-23c6-5 15-8 26-12 11-3 22-5 32-5 16 0 29 4 39 11 10 8 15 19 15 35 0 4 0 9-1 16l-19 97h-28l3-16 3-12c-5 7-11 14-21 21s-20 10-33 10c-12 0-23-3-32-10-9-8-13-17-13-29zm29-5c0 6 2 11 6 15 5 4 11 6 19 6 12 0 22-5 32-16 10-10 16-21 19-34l1-5h-8c-46 0-69 11-69 34zm242-132c-12 0-22-3-29-9-8-6-12-13-12-23 0-3 1-7 2-11h23c0 2-1 5-1 8 0 5 2 9 5 12 4 3 8 4 13 4 7 0 12-2 17-6 5-3 8-10 9-18h24c-2 15-8 26-18 33-9 7-20 10-33 10zm-106 173l30-155h28l-18 91-5 21h1c6-9 12-16 18-22l84-90h29l-30 155h-28l17-91 5-21c-7 8-13 15-18 22l-85 90h-28zm219 0l25-130h-53l5-25h137l-5 25h-54l-25 130h-30zm106-36c0-10 3-18 7-25 4-8 10-13 17-18 7-4 15-8 25-10 9-3 18-5 27-6 8-1 17-2 27-2h7c1-4 2-8 2-13 0-16-10-23-28-23-16 0-31 4-46 14l-8-23c6-5 14-8 25-12 11-3 22-5 33-5 16 0 29 4 39 11 10 8 15 19 15 35 0 4-1 9-2 16l-19 97h-27l3-16 3-12h-1c-4 7-11 14-21 21-9 7-20 10-32 10-13 0-24-3-33-10-8-8-13-17-13-29zm30-5c0 6 2 11 6 15s10 6 19 6c11 0 22-5 32-16 9-10 16-21 19-34v-5h-7c-46 0-69 11-69 34z"/><path class="fil3" d="M442 346l-60 688 286-128z"/><path class="fil4" d="M668 906l322-37-548-523z"/><path class="fil0" d="M3518 1032l14-77h78l-14 77h-78zm122 0l66-339h127c19 0 36 3 49 8 34 14 51 40 51 78 0 23-6 46-17 68-12 22-30 37-54 47v1c3 4 5 10 9 20l44 117h-90l-38-114h-41l-23 114h-83zm119-185h36c15 0 28-5 38-14s15-22 15-38c0-10-3-18-10-23-6-5-14-8-25-8h-37l-17 83zm190 86c0-9 1-18 3-28l41-212h83l-42 215c-1 4-1 9-1 13 0 13 4 23 13 31 9 7 21 10 37 10 18 0 33-4 46-14 12-9 20-23 23-40l42-215h83l-42 217c-8 39-26 70-53 93-28 23-62 35-102 35-37 0-69-9-94-28s-37-44-37-77z"/></g></g></symbol><symbol id="ruble-black" viewBox="0 0 445 445"><path d="M232.522 252.428c66.67 0 120.91-56.625 120.91-126.227C353.432 56.613 299.192 0 232.522 0H115.568v282.428h-24v40h24V445h40V322.428h96.955v-40h-96.955v-30h76.954zM155.568 40h76.955c44.614 0 80.91 38.669 80.91 86.201 0 47.546-36.296 86.227-80.91 86.227h-76.955V40z"/></symbol><symbol id="ruble-color-2" viewBox="0 0 445 445"><path d="M232.522 252.428c66.67 0 120.91-56.625 120.91-126.227C353.432 56.613 299.192 0 232.522 0H115.568v282.428h-24v40h24V445h40V322.428h96.955v-40h-96.955v-30h76.954zM155.568 40h76.955c44.614 0 80.91 38.669 80.91 86.201 0 47.546-36.296 86.227-80.91 86.227h-76.955V40z" fill="#24110c"/></symbol><symbol id="ruble-color" viewBox="0 0 445 445"><path d="M232.522 252.428c66.67 0 120.91-56.625 120.91-126.227C353.432 56.613 299.192 0 232.522 0H115.568v282.428h-24v40h24V445h40V322.428h96.955v-40h-96.955v-30h76.954zM155.568 40h76.955c44.614 0 80.91 38.669 80.91 86.201 0 47.546-36.296 86.227-80.91 86.227h-76.955V40z" fill="#ffc500"/></symbol><symbol id="ruble" viewBox="0 0 445 445"><path d="M232.522 252.428c66.67 0 120.91-56.625 120.91-126.227C353.432 56.613 299.192 0 232.522 0H115.568v282.428h-24v40h24V445h40V322.428h96.955v-40h-96.955v-30h76.954zM155.568 40h76.955c44.614 0 80.91 38.669 80.91 86.201 0 47.546-36.296 86.227-80.91 86.227h-76.955V40z" fill="#fff"/></symbol><symbol id="twitter" viewBox="0 0 49.652 49.652"><path d="M24.826 0C11.137 0 0 11.137 0 24.826c0 13.688 11.137 24.826 24.826 24.826 13.688 0 24.826-11.138 24.826-24.826C49.652 11.137 38.516 0 24.826 0zm11.075 19.144c.011.246.017.494.017.742 0 7.551-5.746 16.255-16.259 16.255-3.227 0-6.231-.943-8.759-2.565.447.053.902.08 1.363.08 2.678 0 5.141-.914 7.097-2.446a5.72 5.72 0 0 1-5.338-3.969 5.76 5.76 0 0 0 2.58-.096 5.715 5.715 0 0 1-4.583-5.603l.001-.072a5.69 5.69 0 0 0 2.587.714 5.71 5.71 0 0 1-2.541-4.755c0-1.048.281-2.03.773-2.874a16.225 16.225 0 0 0 11.777 5.972 5.707 5.707 0 0 1-.147-1.303 5.714 5.714 0 0 1 9.884-3.91 11.406 11.406 0 0 0 3.63-1.387 5.74 5.74 0 0 1-2.516 3.162 11.36 11.36 0 0 0 3.282-.899 11.494 11.494 0 0 1-2.848 2.954z" fill="#c79216"/></symbol><symbol id="vk" viewBox="0 0 97.75 97.75"><path d="M48.875 0C21.883 0 0 21.882 0 48.875S21.883 97.75 48.875 97.75 97.75 75.868 97.75 48.875 75.867 0 48.875 0zm24.792 54.161c2.278 2.225 4.688 4.319 6.733 6.774.906 1.086 1.76 2.209 2.41 3.472.928 1.801.09 3.776-1.522 3.883l-10.013-.002c-2.586.214-4.644-.829-6.379-2.597-1.385-1.409-2.67-2.914-4.004-4.371-.545-.598-1.119-1.161-1.803-1.604-1.365-.888-2.551-.616-3.333.81-.797 1.451-.979 3.059-1.055 4.674-.109 2.361-.821 2.978-3.19 3.089-5.062.237-9.865-.531-14.329-3.083-3.938-2.251-6.986-5.428-9.642-9.025-5.172-7.012-9.133-14.708-12.692-22.625-.801-1.783-.215-2.737 1.752-2.774 3.268-.063 6.536-.055 9.804-.003 1.33.021 2.21.782 2.721 2.037 1.766 4.345 3.931 8.479 6.644 12.313.723 1.021 1.461 2.039 2.512 2.76 1.16.796 2.044.533 2.591-.762.35-.823.501-1.703.577-2.585.26-3.021.291-6.041-.159-9.05-.28-1.883-1.339-3.099-3.216-3.455-.956-.181-.816-.535-.351-1.081.807-.944 1.563-1.528 3.074-1.528l11.313-.002c1.783.35 2.183 1.15 2.425 2.946l.01 12.572c-.021.695.349 2.755 1.597 3.21 1 .33 1.66-.472 2.258-1.105 2.713-2.879 4.646-6.277 6.377-9.794.764-1.551 1.423-3.156 2.063-4.764.476-1.189 1.216-1.774 2.558-1.754l10.894.013c.321 0 .647.003.965.058 1.836.314 2.339 1.104 1.771 2.895-.894 2.814-2.631 5.158-4.329 7.508-1.82 2.516-3.761 4.944-5.563 7.471-1.656 2.31-1.525 3.473.531 5.479z" fill="#c79216"/></symbol><symbol id="waranty" viewBox="-76 1 511 511.99939"><path d="M315.89 0H43.509C19.766.027.528 19.266.5 43.008v425.984c.027 23.742 19.266 42.98 43.008 43.008H315.89c23.742-.027 42.98-19.266 43.007-43.008V43.008C358.871 19.266 339.633.028 315.891 0zm25.942 468.992c-.012 14.32-11.621 25.926-25.941 25.942H43.508c-14.32-.016-25.93-11.622-25.942-25.942V43.008c.012-14.32 11.622-25.926 25.942-25.942H315.89c14.32.016 25.93 11.621 25.941 25.942zm0 0" fill="#FFDA44"/><path d="M106.637 235.691a8.537 8.537 0 0 0 9.48.075l23.125-15.203 15.207 23.125c2.594 3.933 7.887 5.019 11.824 2.421a8.526 8.526 0 0 0 3.657-5.394l11.21-54.278 11.208 54.278c.949 4.617 5.46 7.59 10.074 6.64a8.543 8.543 0 0 0 5.414-3.667l15.215-23.125 23.117 15.203c3.934 2.593 9.227 1.5 11.816-2.434a8.545 8.545 0 0 0 1.23-6.422l-19.151-92.722c17.625-33.329 4.894-74.637-28.434-92.262s-74.637-4.895-92.262 28.433a68.274 68.274 0 0 0 2.082 67.489l-18.37 89.062a8.54 8.54 0 0 0 3.558 8.781zm118.656-34.082a8.527 8.527 0 0 0-11.816 2.442l-8.536 13.035-9.949-48.195a68.076 68.076 0 0 0 31.383-16.778l12 58.07zM179.699 51.2c28.278 0 51.2 22.922 51.2 51.2 0 28.277-22.922 51.203-51.2 51.203-28.277 0-51.199-22.926-51.199-51.204.027-28.265 22.934-51.171 51.2-51.199zm-44.203 103.125a68.007 68.007 0 0 0 31.719 15.149l-9.828 47.613-8.578-13.035a8.53 8.53 0 0 0-11.778-2.442l-13.035 8.532zm0 0M68.766 281.602h221.867v17.066H68.766zm0 0M68.766 341.332h221.867v17.066H68.766zm0 0M68.766 409.598h221.867v17.066H68.766zm0 0" fill="#FFDA44"/></symbol><symbol id="youtube" viewBox="0 0 97.75 97.75"><g fill="#c79216"><path d="M39.969 59.587L61.91 48.211c-7.359-3.84-14.627-7.63-21.941-11.447v22.823z"/><path d="M48.875 0C21.883 0 0 21.882 0 48.875S21.883 97.75 48.875 97.75 97.75 75.868 97.75 48.875 75.867 0 48.875 0zm33.301 65.189c-.846 3.67-3.848 6.377-7.461 6.78-8.557.957-17.217.962-25.842.957-8.625.005-17.287 0-25.846-.957-3.613-.403-6.613-3.11-7.457-6.78-1.203-5.228-1.203-10.933-1.203-16.314s.014-11.088 1.217-16.314c.844-3.67 3.844-6.378 7.457-6.782 8.559-.956 17.221-.961 25.846-.956 8.623-.005 17.285 0 25.841.956 3.615.404 6.617 3.111 7.461 6.782 1.203 5.227 1.193 10.933 1.193 16.314s-.003 11.087-1.206 16.314z"/></g></symbol></svg>