<svg xmlns="http://www.w3.org/2000/svg"><symbol id="download" viewBox="0 0 33.293 33.293"><path d="M16.646 24.786a.5.5 0 0 1-.5-.5l.001-11.279a.5.5 0 0 1 1 0l-.001 11.279a.5.5 0 0 1-.5.5z"/><path d="M16.646 24.786a.502.502 0 0 1-.354-.146l-4.313-4.313a.5.5 0 0 1 .707-.707l3.959 3.959 3.959-3.959a.5.5 0 0 1 .707.707l-4.313 4.313a.494.494 0 0 1-.352.146z"/><path d="M27.578 33.293H5.715a2.503 2.503 0 0 1-2.5-2.5V2.5c0-1.379 1.122-2.5 2.5-2.5h15.877a.5.5 0 0 1 0 1H5.715c-.827 0-1.5.673-1.5 1.5v28.293c0 .827.673 1.5 1.5 1.5h21.863c.827 0 1.5-.673 1.5-1.5V8.704a.5.5 0 0 1 1 0v22.09a2.502 2.502 0 0 1-2.5 2.499z"/><path d="M29.578 9.204h-7.986a.5.5 0 0 1-.5-.5V.717a.5.5 0 0 1 1 0v7.486h7.486a.5.5 0 0 1 0 1.001z"/><path d="M29.578 9.204a.5.5 0 0 1-.358-.151L21.234.85a.5.5 0 0 1 .717-.697l7.986 8.203a.5.5 0 0 1-.359.848z"/></symbol><symbol id="facebook" viewBox="0 0 486.392 486.392"><path d="M243.196 0C108.891 0 0 108.891 0 243.196s108.891 243.196 243.196 243.196 243.196-108.891 243.196-243.196C486.392 108.861 377.501 0 243.196 0zm62.866 243.165l-39.854.03-.03 145.917h-54.689V243.196H175.01v-50.281l36.479-.03-.061-29.609c0-41.039 11.126-65.997 59.431-65.997h40.249v50.311h-25.171c-18.817 0-19.729 7.022-19.729 20.124l-.061 25.171h45.234l-5.319 50.28z" fill="#c79216"/></symbol><symbol id="im" viewBox="0 0 49.652 49.652"><g fill="#c79216"><path d="M24.825 29.796a4.978 4.978 0 0 0 4.972-4.97 4.954 4.954 0 0 0-.94-2.897 4.964 4.964 0 0 0-4.029-2.073c-1.659 0-3.126.82-4.031 2.072a4.947 4.947 0 0 0-.94 2.897 4.973 4.973 0 0 0 4.968 4.971zM35.678 18.746V13.96l-.623.002-4.164.013.016 4.787z"/><path d="M24.826 0C11.137 0 0 11.137 0 24.826c0 13.688 11.137 24.826 24.826 24.826 13.688 0 24.826-11.138 24.826-24.826C49.652 11.137 38.516 0 24.826 0zm14.119 21.929v11.56a5.463 5.463 0 0 1-5.457 5.458H16.164a5.462 5.462 0 0 1-5.457-5.458V16.165a5.462 5.462 0 0 1 5.457-5.457h17.323a5.463 5.463 0 0 1 5.458 5.457v5.764z"/><path d="M32.549 24.826c0 4.257-3.464 7.723-7.723 7.723s-7.722-3.466-7.722-7.723a7.67 7.67 0 0 1 .568-2.897h-4.215v11.56a2.706 2.706 0 0 0 2.706 2.704h17.323a2.707 2.707 0 0 0 2.706-2.704v-11.56h-4.217c.367.894.574 1.873.574 2.897z"/></g></symbol><symbol id="mail" viewBox="0 0 31.012 31.012"><path d="M28.512 26.529H2.5a2.503 2.503 0 0 1-2.5-2.5V6.982c0-1.379 1.122-2.5 2.5-2.5h26.012c1.378 0 2.5 1.121 2.5 2.5v17.047c0 1.379-1.122 2.5-2.5 2.5zM2.5 5.482c-.827 0-1.5.673-1.5 1.5v17.047c0 .827.673 1.5 1.5 1.5h26.012c.827 0 1.5-.673 1.5-1.5V6.982c0-.827-.673-1.5-1.5-1.5H2.5z"/><path d="M15.506 18.018c-.665 0-1.33-.221-1.836-.662L.891 6.219a.5.5 0 1 1 .658-.754l12.778 11.137c.64.557 1.72.556 2.358 0L29.46 5.466a.497.497 0 0 1 .706.049.5.5 0 0 1-.048.705L17.342 17.355c-.506.442-1.171.663-1.836.663z"/></symbol><symbol id="oclock" viewBox="0 0 472.912 472.912"><path d="M236.477.016C106.078.016 0 106.07 0 236.444c0 130.39 106.078 236.452 236.477 236.452 130.374 0 236.436-106.07 236.436-236.452C472.912 106.07 366.851.016 236.477.016zm0 438c-111.134 0-201.564-90.43-201.564-201.564 0-111.126 90.43-201.54 201.564-201.54 111.126 0 201.54 90.422 201.54 201.54-.001 111.134-90.415 201.564-201.54 201.564z" fill="#010002"/><path d="M236.452 61.354c-9.616 0-17.444 7.828-17.444 17.444v140.21H94.771c-9.624 0-17.444 7.836-17.444 17.468 0 9.616 7.828 17.444 17.444 17.444h141.681c9.624 0 17.444-7.828 17.444-17.444V78.798c0-9.624-7.82-17.444-17.444-17.444z" fill="#010002"/></symbol><symbol id="phone" viewBox="0 0 578.106 578.106"><path d="M577.83 456.128c1.225 9.385-1.635 17.545-8.568 24.48l-81.396 80.781c-3.672 4.08-8.465 7.551-14.381 10.404-5.916 2.857-11.729 4.693-17.439 5.508-.408 0-1.635.105-3.676.309-2.037.203-4.689.307-7.953.307-7.754 0-20.301-1.326-37.641-3.979s-38.555-9.182-63.645-19.584c-25.096-10.404-53.553-26.012-85.376-46.818-31.823-20.805-65.688-49.367-101.592-85.68-28.56-28.152-52.224-55.08-70.992-80.783-18.768-25.705-33.864-49.471-45.288-71.299-11.425-21.828-19.993-41.616-25.705-59.364S4.59 177.362 2.55 164.51-.306 141.56.102 134.216c.408-7.344.612-11.424.612-12.24.816-5.712 2.652-11.526 5.508-17.442s6.324-10.71 10.404-14.382L98.022 8.756c5.712-5.712 12.24-8.568 19.584-8.568 5.304 0 9.996 1.53 14.076 4.59s7.548 6.834 10.404 11.322l65.484 124.236c3.672 6.528 4.692 13.668 3.06 21.42-1.632 7.752-5.1 14.28-10.404 19.584l-29.988 29.988c-.816.816-1.53 2.142-2.142 3.978s-.918 3.366-.918 4.59c1.632 8.568 5.304 18.36 11.016 29.376 4.896 9.792 12.444 21.726 22.644 35.802s24.684 30.293 43.452 48.653c18.36 18.77 34.68 33.354 48.96 43.76 14.277 10.4 26.215 18.053 35.803 22.949 9.588 4.896 16.932 7.854 22.031 8.871l7.648 1.531c.816 0 2.145-.307 3.979-.918 1.836-.613 3.162-1.326 3.979-2.143l34.883-35.496c7.348-6.527 15.912-9.791 25.705-9.791 6.938 0 12.443 1.223 16.523 3.672h.611l118.115 69.768c8.571 5.308 13.67 12.038 15.303 20.198z" fill="#010002"/></symbol><symbol id="play-button" viewBox="0 0 41.999 41.999"><path d="M36.068 20.176l-29-20A1 1 0 1 0 5.5.999v40a1 1 0 0 0 1.568.823l29-20a.999.999 0 0 0 0-1.646z" fill="#FFF"/></symbol><symbol id="ruble-color" viewBox="0 0 445 445"><path d="M232.522 252.428c66.67 0 120.91-56.625 120.91-126.227C353.432 56.613 299.192 0 232.522 0H115.568v282.428h-24v40h24V445h40V322.428h96.955v-40h-96.955v-30h76.954zM155.568 40h76.955c44.614 0 80.91 38.669 80.91 86.201 0 47.546-36.296 86.227-80.91 86.227h-76.955V40z" fill="#ffc500"/></symbol><symbol id="ruble" viewBox="0 0 445 445"><path d="M232.522 252.428c66.67 0 120.91-56.625 120.91-126.227C353.432 56.613 299.192 0 232.522 0H115.568v282.428h-24v40h24V445h40V322.428h96.955v-40h-96.955v-30h76.954zM155.568 40h76.955c44.614 0 80.91 38.669 80.91 86.201 0 47.546-36.296 86.227-80.91 86.227h-76.955V40z" fill="#fff"/></symbol><symbol id="twitter" viewBox="0 0 49.652 49.652"><path d="M24.826 0C11.137 0 0 11.137 0 24.826c0 13.688 11.137 24.826 24.826 24.826 13.688 0 24.826-11.138 24.826-24.826C49.652 11.137 38.516 0 24.826 0zm11.075 19.144c.011.246.017.494.017.742 0 7.551-5.746 16.255-16.259 16.255-3.227 0-6.231-.943-8.759-2.565.447.053.902.08 1.363.08 2.678 0 5.141-.914 7.097-2.446a5.72 5.72 0 0 1-5.338-3.969 5.76 5.76 0 0 0 2.58-.096 5.715 5.715 0 0 1-4.583-5.603l.001-.072a5.69 5.69 0 0 0 2.587.714 5.71 5.71 0 0 1-2.541-4.755c0-1.048.281-2.03.773-2.874a16.225 16.225 0 0 0 11.777 5.972 5.707 5.707 0 0 1-.147-1.303 5.714 5.714 0 0 1 9.884-3.91 11.406 11.406 0 0 0 3.63-1.387 5.74 5.74 0 0 1-2.516 3.162 11.36 11.36 0 0 0 3.282-.899 11.494 11.494 0 0 1-2.848 2.954z" fill="#c79216"/></symbol><symbol id="vk" viewBox="0 0 97.75 97.75"><path d="M48.875 0C21.883 0 0 21.882 0 48.875S21.883 97.75 48.875 97.75 97.75 75.868 97.75 48.875 75.867 0 48.875 0zm24.792 54.161c2.278 2.225 4.688 4.319 6.733 6.774.906 1.086 1.76 2.209 2.41 3.472.928 1.801.09 3.776-1.522 3.883l-10.013-.002c-2.586.214-4.644-.829-6.379-2.597-1.385-1.409-2.67-2.914-4.004-4.371-.545-.598-1.119-1.161-1.803-1.604-1.365-.888-2.551-.616-3.333.81-.797 1.451-.979 3.059-1.055 4.674-.109 2.361-.821 2.978-3.19 3.089-5.062.237-9.865-.531-14.329-3.083-3.938-2.251-6.986-5.428-9.642-9.025-5.172-7.012-9.133-14.708-12.692-22.625-.801-1.783-.215-2.737 1.752-2.774 3.268-.063 6.536-.055 9.804-.003 1.33.021 2.21.782 2.721 2.037 1.766 4.345 3.931 8.479 6.644 12.313.723 1.021 1.461 2.039 2.512 2.76 1.16.796 2.044.533 2.591-.762.35-.823.501-1.703.577-2.585.26-3.021.291-6.041-.159-9.05-.28-1.883-1.339-3.099-3.216-3.455-.956-.181-.816-.535-.351-1.081.807-.944 1.563-1.528 3.074-1.528l11.313-.002c1.783.35 2.183 1.15 2.425 2.946l.01 12.572c-.021.695.349 2.755 1.597 3.21 1 .33 1.66-.472 2.258-1.105 2.713-2.879 4.646-6.277 6.377-9.794.764-1.551 1.423-3.156 2.063-4.764.476-1.189 1.216-1.774 2.558-1.754l10.894.013c.321 0 .647.003.965.058 1.836.314 2.339 1.104 1.771 2.895-.894 2.814-2.631 5.158-4.329 7.508-1.82 2.516-3.761 4.944-5.563 7.471-1.656 2.31-1.525 3.473.531 5.479z" fill="#c79216"/></symbol><symbol id="waranty" viewBox="-76 1 511 511.99939"><path d="M315.89 0H43.509C19.766.027.528 19.266.5 43.008v425.984c.027 23.742 19.266 42.98 43.008 43.008H315.89c23.742-.027 42.98-19.266 43.007-43.008V43.008C358.871 19.266 339.633.028 315.891 0zm25.942 468.992c-.012 14.32-11.621 25.926-25.941 25.942H43.508c-14.32-.016-25.93-11.622-25.942-25.942V43.008c.012-14.32 11.622-25.926 25.942-25.942H315.89c14.32.016 25.93 11.621 25.941 25.942zm0 0" fill="#FFDA44"/><path d="M106.637 235.691a8.537 8.537 0 0 0 9.48.075l23.125-15.203 15.207 23.125c2.594 3.933 7.887 5.019 11.824 2.421a8.526 8.526 0 0 0 3.657-5.394l11.21-54.278 11.208 54.278c.949 4.617 5.46 7.59 10.074 6.64a8.543 8.543 0 0 0 5.414-3.667l15.215-23.125 23.117 15.203c3.934 2.593 9.227 1.5 11.816-2.434a8.545 8.545 0 0 0 1.23-6.422l-19.151-92.722c17.625-33.329 4.894-74.637-28.434-92.262s-74.637-4.895-92.262 28.433a68.274 68.274 0 0 0 2.082 67.489l-18.37 89.062a8.54 8.54 0 0 0 3.558 8.781zm118.656-34.082a8.527 8.527 0 0 0-11.816 2.442l-8.536 13.035-9.949-48.195a68.076 68.076 0 0 0 31.383-16.778l12 58.07zM179.699 51.2c28.278 0 51.2 22.922 51.2 51.2 0 28.277-22.922 51.203-51.2 51.203-28.277 0-51.199-22.926-51.199-51.204.027-28.265 22.934-51.171 51.2-51.199zm-44.203 103.125a68.007 68.007 0 0 0 31.719 15.149l-9.828 47.613-8.578-13.035a8.53 8.53 0 0 0-11.778-2.442l-13.035 8.532zm0 0M68.766 281.602h221.867v17.066H68.766zm0 0M68.766 341.332h221.867v17.066H68.766zm0 0M68.766 409.598h221.867v17.066H68.766zm0 0" fill="#FFDA44"/></symbol><symbol id="youtube" viewBox="0 0 97.75 97.75"><g fill="#c79216"><path d="M39.969 59.587L61.91 48.211c-7.359-3.84-14.627-7.63-21.941-11.447v22.823z"/><path d="M48.875 0C21.883 0 0 21.882 0 48.875S21.883 97.75 48.875 97.75 97.75 75.868 97.75 48.875 75.867 0 48.875 0zm33.301 65.189c-.846 3.67-3.848 6.377-7.461 6.78-8.557.957-17.217.962-25.842.957-8.625.005-17.287 0-25.846-.957-3.613-.403-6.613-3.11-7.457-6.78-1.203-5.228-1.203-10.933-1.203-16.314s.014-11.088 1.217-16.314c.844-3.67 3.844-6.378 7.457-6.782 8.559-.956 17.221-.961 25.846-.956 8.623-.005 17.285 0 25.841.956 3.615.404 6.617 3.111 7.461 6.782 1.203 5.227 1.193 10.933 1.193 16.314s-.003 11.087-1.206 16.314z"/></g></symbol></svg>