<?xml version="1.0" encoding="utf-8"?>
<!-- Generator: Adobe Illustrator 18.0.0, SVG Export Plug-In . SVG Version: 6.00 Build 0)  -->
<!DOCTYPE svg PUBLIC "-//W3C//DTD SVG 1.1//EN" "http://www.w3.org/Graphics/SVG/1.1/DTD/svg11.dtd">
<svg version="1.1" id="Layer_1" xmlns="http://www.w3.org/2000/svg" xmlns:xlink="http://www.w3.org/1999/xlink" x="0px" y="0px"
	 viewBox="0 0 198.4 141.7" enable-background="new 0 0 198.4 141.7" xml:space="preserve">
<rect x="0" y="0" display="none" fill="#D3D726" width="198.4" height="141.7"/>
<g>
	<g>
		<path fill="none" stroke="#c79216" stroke-miterlimit="10" d="M47.4,94.5c3.4,0,11.8-0.6,18-5.2v3.5H78l0-15.2l5.3-5.5l11.5,20.7
			h15.1L92.6,63.2l16.9-18.6H94L78,62.9V27.8H65.4v5.6c-3.9-4.1-10.1-7.3-19.8-7.3c-21,0-25,12.8-25,20c0,9.9,5.3,15.3,14.5,17.6
			l13.1,3.2c6.9,1.7,11.8,3,11.8,8.1c0,6.8-7.2,8.4-13.6,8.4c-11.8,0-13.8-6.9-13.8-10.6h-13C19.7,80.8,23.8,94.5,47.4,94.5
			 M56,55.7l-15.8-3.9c-2.7-0.6-6.9-1.7-6.9-6.8c0-5.8,6.2-7.8,11.4-7.8c11.8,0,12.9,6.9,13.2,9.8h7.5v12.1
			C62.7,57.6,59.4,56.6,56,55.7"/>
	</g>
	<g>
		<path fill="none" stroke="#c79216" stroke-miterlimit="10" d="M26.6,101.9h-6.5v-4.1h17.8v4.1h-6.5v17.7h-4.8V101.9z"/>
		<path fill="none" stroke="#c79216" stroke-miterlimit="10" d="M42.6,120c-1.2,0-2.4-0.2-3.4-0.6c-1-0.4-1.8-1-2.5-1.7
			c-0.7-0.7-1.2-1.6-1.6-2.6c-0.4-1-0.6-2.1-0.6-3.4c0-1.2,0.2-2.3,0.6-3.3c0.4-1,0.9-1.9,1.6-2.6c0.7-0.7,1.6-1.3,2.5-1.8
			c1-0.4,2.1-0.6,3.3-0.6c1.3,0,2.4,0.2,3.3,0.7c1,0.5,1.8,1.1,2.4,1.9c0.6,0.8,1.1,1.7,1.4,2.7c0.3,1,0.5,2.1,0.5,3.2
			c0,0.1,0,0.3,0,0.4c0,0.1,0,0.3,0,0.4H38.9c0.1,1.4,0.4,2.4,1.1,3c0.7,0.6,1.6,0.9,2.8,0.9c0.9,0,1.6-0.2,2.3-0.7
			c0.6-0.4,1-0.9,1.2-1.4H50c-0.6,1.9-1.5,3.2-2.8,4.1C45.9,119.6,44.4,120,42.6,120z M45.9,110c-0.2-1.1-0.6-1.9-1.1-2.5
			c-0.5-0.6-1.3-0.9-2.4-0.9c-0.7,0-1.3,0.1-1.7,0.4c-0.4,0.2-0.8,0.5-1.1,0.9c-0.3,0.3-0.5,0.7-0.6,1.1c-0.1,0.4-0.2,0.7-0.2,1
			H45.9z"/>
		<path fill="none" stroke="#c79216" stroke-miterlimit="10" d="M55.4,111.3l-5.2-7.5h4.9l2.8,4.1l2.7-4.1h4.8l-5.2,7.4l5.8,8.4
			h-4.9l-3.3-5l-3.3,5h-4.8L55.4,111.3z"/>
		<path fill="none" stroke="#c79216" stroke-miterlimit="10" d="M66.2,103.8h4.3v5.7h6.2v-5.7H81v15.8h-4.3V113h-6.2v6.6h-4.3V103.8
			z"/>
		<path fill="none" stroke="#c79216" stroke-miterlimit="10" d="M90.4,120c-1.2,0-2.4-0.2-3.4-0.6c-1-0.4-1.9-0.9-2.6-1.7
			c-0.7-0.7-1.3-1.6-1.6-2.6c-0.4-1-0.6-2.2-0.6-3.4c0-1.3,0.2-2.4,0.6-3.4c0.4-1,0.9-1.9,1.6-2.6c0.7-0.7,1.6-1.3,2.6-1.7
			c1-0.4,2.1-0.6,3.4-0.6c1.2,0,2.4,0.2,3.4,0.6c1,0.4,1.9,1,2.6,1.7c0.7,0.7,1.3,1.6,1.6,2.6c0.4,1,0.6,2.2,0.6,3.4
			c0,1.3-0.2,2.4-0.6,3.4c-0.4,1-0.9,1.9-1.6,2.6c-0.7,0.7-1.6,1.3-2.6,1.7C92.8,119.8,91.6,120,90.4,120z M90.4,116.7
			c0.7,0,1.4-0.1,1.9-0.4c0.5-0.3,0.9-0.7,1.2-1.1c0.3-0.5,0.5-1,0.6-1.6c0.1-0.6,0.2-1.2,0.2-1.8c0-0.6-0.1-1.3-0.2-1.9
			c-0.1-0.6-0.3-1.1-0.6-1.6c-0.3-0.5-0.7-0.8-1.2-1.1c-0.5-0.3-1.1-0.4-1.9-0.4c-0.7,0-1.4,0.1-1.8,0.4s-0.9,0.7-1.2,1.1
			c-0.3,0.5-0.5,1-0.6,1.6c-0.1,0.6-0.2,1.2-0.2,1.9c0,0.6,0.1,1.2,0.2,1.8c0.1,0.6,0.3,1.1,0.6,1.6c0.3,0.5,0.7,0.9,1.2,1.1
			C89.1,116.6,89.7,116.7,90.4,116.7z"/>
		<path fill="none" stroke="#c79216" stroke-miterlimit="10" d="M99.9,103.8h14.5v15.8h-4.3v-12.5h-5.9v12.5h-4.3V103.8z"/>
		<path fill="none" stroke="#c79216" stroke-miterlimit="10" d="M120.8,120c-0.8,0-1.5-0.1-2.1-0.3c-0.7-0.2-1.2-0.5-1.7-0.9
			c-0.5-0.4-0.9-0.9-1.1-1.5c-0.3-0.6-0.4-1.3-0.4-2.1c0-0.9,0.2-1.6,0.5-2.2c0.3-0.6,0.7-1,1.2-1.4c0.5-0.3,1.1-0.6,1.7-0.8
			c0.6-0.2,1.3-0.3,1.9-0.4c0.7-0.1,1.3-0.2,1.9-0.2c0.6-0.1,1.2-0.2,1.7-0.3c0.5-0.1,0.9-0.3,1.2-0.5c0.3-0.2,0.4-0.6,0.4-1
			c0-0.4-0.1-0.8-0.2-1.1c-0.2-0.3-0.4-0.5-0.6-0.7c-0.3-0.2-0.5-0.3-0.9-0.3c-0.3-0.1-0.7-0.1-1.1-0.1c-0.9,0-1.5,0.2-2,0.5
			c-0.5,0.4-0.8,1-0.9,1.8H116c0.1-1,0.3-1.8,0.8-2.5c0.4-0.7,1-1.2,1.7-1.6c0.7-0.4,1.5-0.7,2.3-0.9c0.9-0.2,1.7-0.3,2.6-0.3
			c0.8,0,1.6,0.1,2.4,0.2c0.8,0.1,1.5,0.3,2.2,0.7c0.7,0.3,1.2,0.8,1.6,1.4c0.4,0.6,0.6,1.4,0.6,2.3v8.2c0,0.7,0,1.4,0.1,2
			c0.1,0.7,0.2,1.1,0.4,1.5h-4.4c-0.1-0.2-0.1-0.5-0.2-0.7c-0.1-0.3-0.1-0.5-0.1-0.8c-0.7,0.7-1.5,1.2-2.4,1.5
			C122.8,119.8,121.8,120,120.8,120z M122.4,117.1c0.9,0,1.5-0.1,2-0.4c0.5-0.3,0.8-0.6,1-1c0.2-0.4,0.4-0.8,0.4-1.2
			c0.1-0.4,0.1-0.7,0.1-1l0-1.6c-0.2,0.2-0.4,0.3-0.7,0.4c-0.3,0.1-0.6,0.2-0.9,0.2c-0.3,0.1-0.7,0.1-1,0.2c-0.3,0-0.7,0.1-1,0.2
			c-0.3,0.1-0.7,0.1-1,0.2c-0.3,0.1-0.6,0.2-0.8,0.4c-0.2,0.2-0.4,0.4-0.6,0.7c-0.1,0.3-0.2,0.6-0.2,1c0,0.4,0.1,0.7,0.2,1
			c0.1,0.3,0.3,0.5,0.6,0.6c0.2,0.2,0.5,0.3,0.9,0.3C121.7,117.1,122.1,117.1,122.4,117.1z"/>
		<path fill="none" stroke="#c79216" stroke-miterlimit="10" d="M132.1,103.8h4.1v2h0.1c0.5-0.9,1.2-1.5,2-1.9
			c0.8-0.4,1.7-0.6,2.7-0.6c1.2,0,2.3,0.2,3.2,0.7c0.9,0.5,1.6,1.1,2.2,1.9c0.6,0.8,1,1.7,1.3,2.7c0.3,1,0.4,2.1,0.4,3.2
			c0,1.1-0.1,2.1-0.4,3c-0.3,1-0.7,1.8-1.3,2.6c-0.6,0.8-1.3,1.4-2.2,1.8c-0.9,0.4-1.9,0.7-3,0.7c-1,0-1.9-0.2-2.7-0.6
			c-0.8-0.4-1.5-1-2-1.8h-0.1v7.5h-4.3V103.8z M140.1,116.7c0.7,0,1.3-0.1,1.8-0.4c0.5-0.3,0.9-0.7,1.2-1.1s0.5-1,0.6-1.6
			c0.1-0.6,0.2-1.2,0.2-1.9c0-0.6-0.1-1.2-0.2-1.9c-0.1-0.6-0.4-1.2-0.7-1.6c-0.3-0.5-0.7-0.9-1.2-1.2c-0.5-0.3-1.1-0.4-1.8-0.4
			c-0.7,0-1.3,0.1-1.8,0.4c-0.5,0.3-0.9,0.7-1.2,1.1c-0.3,0.5-0.5,1-0.6,1.6c-0.1,0.6-0.2,1.2-0.2,1.9c0,0.7,0.1,1.3,0.2,1.9
			c0.1,0.6,0.3,1.1,0.6,1.6s0.7,0.8,1.2,1.1C138.8,116.6,139.4,116.7,140.1,116.7z"/>
		<path fill="none" stroke="#c79216" stroke-miterlimit="10" d="M149.2,103.8h4.3v6.7l5.8-6.7h5.1l-6,6.3l6.9,9.5H160l-4.4-6.6
			l-2.1,2.2v4.4h-4.3V103.8z"/>
	</g>
</g>
</svg>
